<svg width="85" height="29" viewBox="0 0 85 29" fill="none" xmlns="http://www.w3.org/2000/svg">
<path d="M34.5597 10.28C35.7437 10.28 36.8157 10.552 37.7757 11.096C38.7357 11.624 39.4877 12.376 40.0317 13.352C40.5757 14.328 40.8477 15.44 40.8477 16.688C40.8477 17.936 40.5757 19.048 40.0317 20.024C39.4877 21 38.7357 21.76 37.7757 22.304C36.8157 22.848 35.7437 23.12 34.5597 23.12C33.5037 23.12 32.5517 22.896 31.7037 22.448C30.8717 22 30.1997 21.352 29.6877 20.504V23H28.0557V5.192H29.7597V12.776C30.2877 11.96 30.9597 11.344 31.7757 10.928C32.6077 10.496 33.5357 10.28 34.5597 10.28ZM34.4397 21.608C35.3197 21.608 36.1197 21.408 36.8397 21.008C37.5597 20.592 38.1197 20.008 38.5197 19.256C38.9357 18.504 39.1437 17.648 39.1437 16.688C39.1437 15.728 38.9357 14.872 38.5197 14.12C38.1197 13.368 37.5597 12.792 36.8397 12.392C36.1197 11.976 35.3197 11.768 34.4397 11.768C33.5437 11.768 32.7357 11.976 32.0157 12.392C31.3117 12.792 30.7517 13.368 30.3357 14.12C29.9357 14.872 29.7357 15.728 29.7357 16.688C29.7357 17.648 29.9357 18.504 30.3357 19.256C30.7517 20.008 31.3117 20.592 32.0157 21.008C32.7357 21.408 33.5437 21.608 34.4397 21.608ZM55.1973 10.376V23H53.5653V20.696C53.1173 21.464 52.5013 22.064 51.7173 22.496C50.9333 22.912 50.0373 23.12 49.0293 23.12C47.3813 23.12 46.0773 22.664 45.1173 21.752C44.1733 20.824 43.7013 19.472 43.7013 17.696V10.376H45.4053V17.528C45.4053 18.856 45.7333 19.864 46.3893 20.552C47.0453 21.24 47.9813 21.584 49.1973 21.584C50.5253 21.584 51.5733 21.184 52.3413 20.384C53.1093 19.568 53.4933 18.44 53.4933 17V10.376H55.1973ZM70.0778 10.376L64.4618 23H62.7098L57.1178 10.376H58.8938L63.6218 21.128L68.3978 10.376H70.0778ZM71.3253 23.12C70.9733 23.12 70.6693 22.992 70.4133 22.736C70.1733 22.48 70.0533 22.168 70.0533 21.8C70.0533 21.432 70.1733 21.128 70.4133 20.888C70.6693 20.632 70.9733 20.504 71.3253 20.504C71.6773 20.504 71.9813 20.632 72.2373 20.888C72.4933 21.128 72.6213 21.432 72.6213 21.8C72.6213 22.168 72.4933 22.48 72.2373 22.736C71.9813 22.992 71.6773 23.12 71.3253 23.12Z" fill="black"/>
<path d="M25.0002 16.5001C25.0002 20.09 22.09 23.0002 18.5001 23.0002C14.9102 23.0002 12 20.09 12 16.5001C12 12.9102 14.9102 10 18.5001 10C22.09 10 25.0002 12.9102 25.0002 16.5001ZM13.6521 16.5001C13.6521 19.1776 15.8226 21.3481 18.5001 21.3481C21.1776 21.3481 23.3481 19.1776 23.3481 16.5001C23.3481 13.8226 21.1776 11.6521 18.5001 11.6521C15.8226 11.6521 13.6521 13.8226 13.6521 16.5001Z" fill="black"/>
<path d="M23.4785 19.2225C23.8787 19.4413 24.0298 19.9472 23.762 20.3165C23.3961 20.8209 22.9588 21.2712 22.4626 21.6528C21.7475 22.2027 20.9259 22.5977 20.0498 22.8128C19.1738 23.0279 18.2626 23.0582 17.3742 22.902C16.4858 22.7457 15.6396 22.4063 14.8895 21.9052C14.1394 21.4042 13.5018 20.7525 13.0173 19.9916C12.5328 19.2307 12.2119 18.3773 12.0752 17.4857C11.9384 16.5941 11.9887 15.6838 12.2229 14.8127C12.3854 14.2082 12.6339 13.6317 12.9598 13.1006C13.1984 12.7118 13.7235 12.6577 14.079 12.9436C14.4345 13.2296 14.4836 13.7471 14.2621 14.1459C14.0705 14.4908 13.9213 14.8586 13.8183 15.2416C13.6437 15.8913 13.6062 16.5702 13.7082 17.2352C13.8102 17.9002 14.0495 18.5367 14.4109 19.1042C14.7722 19.6717 15.2478 20.1577 15.8072 20.5314C16.3666 20.9051 16.9977 21.1583 17.6604 21.2748C18.323 21.3914 19.0026 21.3687 19.6559 21.2083C20.3093 21.0479 20.9222 20.7533 21.4555 20.3432C21.7698 20.1015 22.0525 19.8227 22.2977 19.5137C22.5813 19.1564 23.0782 19.0036 23.4785 19.2225Z" fill="url(#paint0_linear)"/>
<defs>
<linearGradient id="paint0_linear" x1="22.3596" y1="21.4768" x2="14.336" y2="11.7266" gradientUnits="userSpaceOnUse">
<stop stop-color="#F1915B"/>
<stop offset="1" stop-color="#F54278"/>
</linearGradient>
</defs>
</svg>
