<svg width="41" height="28" viewBox="0 0 41 28" fill="none" xmlns="http://www.w3.org/2000/svg">
<path d="M37.6349 27.4608C35.7706 27.4608 34.6648 26.4921 34.5802 25.0969H36.3629C36.3629 25.5619 36.6167 26.1811 37.7195 26.2196C38.484 26.2196 38.907 25.7545 38.907 25.4049C38.8224 24.8628 38.1426 24.8243 37.4657 24.7058C36.7013 24.5933 36.109 24.4362 35.6831 24.2437C35.0908 23.9326 34.7494 23.272 34.7494 22.5759C34.7494 21.3347 35.7706 20.366 37.5503 20.366C39.2484 20.366 40.3512 21.2576 40.4329 22.6144H38.7378C38.7378 22.2678 38.6532 21.6842 37.6349 21.6842C36.9551 21.6842 36.5321 21.7997 36.4475 22.3033C36.4475 23.0025 37.8888 22.964 38.9916 23.2335C40.0099 23.5061 40.6897 24.1637 40.6897 25.0969C40.6897 26.8032 39.333 27.4608 37.6349 27.4608Z" fill="black"/>
<path d="M5.15088 16.0129L11.0036 12.5618L14.143 18.0303H6.25374" fill="black"/>
<path d="M17.4581 27.255V20.3527V27.255Z" fill="black"/>
<path d="M17.4581 27.255V20.3527" stroke="black" stroke-width="0.586996"/>
<path d="M2.43425 23.906C2.43425 24.9902 3.36789 25.8819 4.38322 25.8819C5.489 25.8819 6.33511 24.9902 6.33511 23.906C6.33511 22.8602 5.489 21.9301 4.38322 21.9301C3.36789 21.9301 2.43425 22.8602 2.43425 23.906ZM4.29861 27.4727C2.43425 27.4727 0.82373 25.8819 0.82373 23.906C0.82373 21.9301 2.43425 20.3778 4.29861 20.3778C5.06303 20.3778 5.74283 20.5733 6.33511 20.9969V20.4548H8.03316V27.3157H6.33511V26.8891C5.82744 27.2771 5.06303 27.4727 4.29861 27.4727Z" fill="black"/>
<path d="M26.9517 18.0286L18.8086 3.60781L24.6613 0.118145L34.8409 18.0286" fill="black"/>
<path d="M10.2389 23.906C10.2389 24.9902 11.088 25.8819 12.1908 25.8819C13.2062 25.8819 14.1427 24.9902 14.1427 23.906C14.1427 22.8603 13.2062 21.9301 12.1908 21.9301C11.088 21.9301 10.2389 22.8603 10.2389 23.906ZM12.1062 27.4727C10.1543 27.4727 8.62842 25.8819 8.62842 23.906C8.62842 21.9301 10.1543 20.3778 12.1062 20.3778C12.8677 20.3778 13.5475 20.5733 14.1427 20.9969V18.0908H15.8378V27.3157H14.1427V26.8891C13.5475 27.2771 12.8677 27.4727 12.1062 27.4727Z" fill="black"/>
<path d="M12.0223 9.84927L17.9597 6.43958L24.4922 18.0284H18.2981V19.7347H16.603V18.0284" fill="black"/>
<path d="M39.5896 19.7882C39.1637 19.7882 38.7406 19.4001 38.7406 18.935C38.7406 18.4699 39.1637 18.0819 39.5896 18.0819C40.0973 18.0819 40.4387 18.4699 40.4387 18.935C40.4387 19.4001 40.0973 19.7882 39.5896 19.7882ZM39.5896 18.2004C39.1637 18.2004 38.9098 18.547 38.9098 18.935C38.9098 19.3231 39.1637 19.6727 39.5896 19.6727C40.0127 19.6727 40.2665 19.3231 40.2665 18.935C40.2665 18.547 40.0127 18.2004 39.5896 18.2004Z" fill="black"/>
<path d="M39.7647 19.4031L39.5954 19.015H39.4262V19.4031H39.2979V18.4729H39.68C39.7647 18.4729 39.9339 18.5914 39.9339 18.7454C39.9339 18.8995 39.8493 18.9765 39.7647 19.015L39.9339 19.4031H39.7647ZM39.5954 18.5914H39.4262V18.8995H39.5954C39.7647 18.8995 39.7647 18.861 39.7647 18.7454C39.7647 18.6655 39.7647 18.5914 39.5954 18.5914Z" fill="black"/>
<path d="M28.3862 23.9059C28.3862 24.9901 29.2352 25.8818 30.3381 25.8818C31.3563 25.8818 32.287 24.9901 32.287 23.9059C32.287 22.8602 31.3563 21.93 30.3381 21.93C29.2352 21.93 28.3862 22.8602 28.3862 23.9059ZM30.2505 27.4726C28.3016 27.4726 26.7756 25.8818 26.7756 23.9059C26.7756 21.93 28.3016 20.3777 30.2505 20.3777C31.015 20.3777 31.6948 20.5732 32.287 20.9969V20.4547H33.9005V27.3156H32.287V26.889C31.6948 27.2771 31.015 27.4726 30.2505 27.4726Z" fill="black"/>
<path d="M20.5875 23.906C20.5875 24.9902 21.5211 25.8819 22.5393 25.8819C23.6422 25.8819 24.4912 24.9902 24.4912 23.906C24.4912 22.8603 23.6422 21.9301 22.5393 21.9301C21.5211 21.9301 20.5875 22.8603 20.5875 23.906ZM24.4912 18.0908H26.1864V27.3157H24.4912V26.8891C23.9806 27.2771 23.3008 27.4727 22.5393 27.4727C20.5875 27.4727 18.9769 25.8819 18.9769 23.906C18.9769 21.9301 20.5875 20.3778 22.5393 20.3778C23.3008 20.3778 23.9806 20.5733 24.4912 20.9969V18.0908Z" fill="black"/>
</svg>
