<svg width="69" height="62" viewBox="0 0 69 62" fill="none" xmlns="http://www.w3.org/2000/svg">
<path fill-rule="evenodd" clip-rule="evenodd" d="M48 18C48 25.1797 42.1797 31 35 31C27.8203 31 22 25.1797 22 18C22 10.8203 27.8203 5 35 5C42.1797 5 48 10.8203 48 18ZM53 18C53 27.9411 44.9411 36 35 36C25.0589 36 17 27.9411 17 18C17 8.05887 25.0589 0 35 0C44.9411 0 53 8.05887 53 18ZM5 56C5 48.9986 9.79992 43.1135 16.2861 41.4624C21.135 46.1249 27.7335 49 35 49C42.1523 49 48.6578 46.2144 53.4844 41.6805C59.577 43.5859 64 49.2798 64 56V57H5V56ZM0 56C0 45.5943 7.94673 37.0447 18.1024 36.0889C22.138 40.9238 28.2098 44 35 44C41.7402 44 47.7724 40.969 51.8079 36.1956C61.5242 37.5607 69 45.9073 69 56V57V62H64H5H0V57V56Z" fill="url(#paint0_linear)"/>
<defs>
<linearGradient id="paint0_linear" x1="54.9844" y1="54.7344" x2="17.7013" y2="4.31324" gradientUnits="userSpaceOnUse">
<stop stop-color="#F1915B"/>
<stop offset="1" stop-color="#F54278"/>
</linearGradient>
</defs>
</svg>
