<svg width="69" height="62" viewBox="0 0 69 62" fill="none" xmlns="http://www.w3.org/2000/svg">
<path fill-rule="evenodd" clip-rule="evenodd" d="M2.69338e-07 0H10.651L14.2668 8H14.2903H63.6767H69.0001L67.1731 13L57.6731 39H22.2703H20.294L20.2875 38.9823C19.1824 38.9758 18.1902 39.0015 17.2856 39.1948C16.6389 39.333 16.2433 39.5247 16.0048 39.716C15.8087 39.8733 15.6182 40.1057 15.5014 40.5883C15.3425 41.2443 15.472 41.9509 15.7697 42.4513C16.0624 42.9433 16.343 43 16.4607 43V48C14.1576 48 12.4275 46.6127 11.4726 45.0077C10.5228 43.4111 10.1682 41.3678 10.6417 39.4117C11.0091 37.8942 11.7869 36.6892 12.8769 35.8152C13.9244 34.9752 15.1325 34.542 16.2408 34.3052C16.959 34.1517 17.7231 34.0676 18.4756 34.0233L10.794 13L9.74993 10.1427L7.42558 5L0 5L2.69338e-07 0ZM16.1173 13L23.7904 34H54.1767L61.8498 13H16.1173ZM16.4607 43H61.9697V48H16.4607V43ZM25.4619 56.5C25.4619 59.5376 23.0085 62 19.9821 62C16.9556 62 14.5022 59.5376 14.5022 56.5C14.5022 53.4624 16.9556 51 19.9821 51C23.0085 51 25.4619 53.4624 25.4619 56.5ZM57.7325 62C60.759 62 63.2124 59.5376 63.2124 56.5C63.2124 53.4624 60.759 51 57.7325 51C54.7061 51 52.2526 53.4624 52.2526 56.5C52.2526 59.5376 54.7061 62 57.7325 62Z" fill="url(#paint0_linear)"/>
<defs>
<linearGradient id="paint0_linear" x1="54.9844" y1="54.7344" x2="17.7014" y2="4.3132" gradientUnits="userSpaceOnUse">
<stop stop-color="#F1915B"/>
<stop offset="1" stop-color="#F54278"/>
</linearGradient>
</defs>
</svg>
