<svg width="27" height="24" viewBox="0 0 27 24" fill="none" xmlns="http://www.w3.org/2000/svg">
<path fill-rule="evenodd" clip-rule="evenodd" d="M25.3117 4C24.9591 5.38018 23.7154 6.4 22.2353 6.4C20.7552 6.4 19.5115 5.38018 19.1589 4H0V2H19.2897C19.7609 0.827268 20.9022 0 22.2353 0C23.5684 0 24.7096 0.827268 25.1809 2H27V4H25.3117ZM20.8595 4C21.1341 4.47824 21.6474 4.8 22.2353 4.8C22.8232 4.8 23.3364 4.47825 23.6111 4C23.7462 3.76466 23.8235 3.49143 23.8235 3.2C23.8235 2.75817 23.6458 2.35817 23.3583 2.06863C23.3349 2.04501 23.3107 2.02212 23.2858 2C23.0059 1.75105 22.6381 1.6 22.2353 1.6C21.8325 1.6 21.4647 1.75105 21.1847 2C20.855 2.29318 20.6471 2.72212 20.6471 3.2C20.6471 3.47614 20.7165 3.73595 20.8387 3.96266C20.8455 3.97521 20.8524 3.98766 20.8595 4ZM6.14046 12.8C6.2756 12.5647 6.35294 12.2914 6.35294 12C6.35294 11.5221 6.14498 11.0932 5.81526 10.8C5.53528 10.5511 5.1675 10.4 4.76471 10.4C4.36191 10.4 3.99414 10.5511 3.71416 10.8C3.38443 11.0932 3.17647 11.5221 3.17647 12C3.17647 12.2914 3.25381 12.5647 3.38895 12.8C3.66356 13.2782 4.17683 13.6 4.76471 13.6C5.35258 13.6 5.86585 13.2782 6.14046 12.8ZM7.8411 12.8C7.48848 14.1802 6.24481 15.2 4.76471 15.2C3.2846 15.2 2.04093 14.1802 1.68831 12.8H0V10.8H1.81913C2.29035 9.62727 3.43163 8.8 4.76471 8.8C6.09778 8.8 7.23906 9.62727 7.71028 10.8H27V12.8H7.8411ZM17.2581 21.6C17.3932 21.3647 17.4706 21.0914 17.4706 20.8C17.4706 20.3221 17.2626 19.8932 16.9329 19.6C16.6529 19.3511 16.2851 19.2 15.8824 19.2C15.4796 19.2 15.1118 19.3511 14.8318 19.6C14.5021 19.8932 14.2941 20.3221 14.2941 20.8C14.2941 21.0914 14.3715 21.3647 14.5066 21.6C14.7812 22.0782 15.2945 22.4 15.8824 22.4C16.4702 22.4 16.9835 22.0782 17.2581 21.6ZM18.9588 21.6C18.6061 22.9802 17.3625 24 15.8824 24C14.4022 24 13.1586 22.9802 12.806 21.6H0V19.6H12.9368C13.408 18.4273 14.5493 17.6 15.8824 17.6C17.2154 17.6 18.3567 18.4273 18.8279 19.6H27V21.6H18.9588Z" fill="url(#paint0_linear)"/>
<defs>
<linearGradient id="paint0_linear" x1="21.5156" y1="21.1875" x2="7.1299" y2="1.52094" gradientUnits="userSpaceOnUse">
<stop stop-color="#F1915B"/>
<stop offset="1" stop-color="#F54278"/>
</linearGradient>
</defs>
</svg>
