<svg width="36" height="36" viewBox="0 0 36 36" fill="none" xmlns="http://www.w3.org/2000/svg">
<path fill-rule="evenodd" clip-rule="evenodd" d="M23.0543 21.6187C26.3874 17.5644 26.1598 11.5636 22.3714 7.77514C18.3407 3.74451 11.8058 3.74451 7.77515 7.77514C3.74452 11.8058 3.74452 18.3407 7.77515 22.3713C11.5636 26.1598 17.5644 26.3874 21.6188 23.0542L27.378 28.8135L28.8135 27.378L23.0543 21.6187ZM21.155 8.99149C24.5138 12.3504 24.5138 17.7961 21.155 21.155C17.7961 24.5139 12.3503 24.5139 8.99145 21.155C5.63259 17.7961 5.63259 12.3504 8.99145 8.99149C12.3503 5.63263 17.7961 5.63263 21.155 8.99149Z" fill="url(#paint0_linear)"/>
<defs>
<linearGradient id="paint0_linear" x1="30.0477" y1="21.3812" x2="6.33096" y2="22.9912" gradientUnits="userSpaceOnUse">
<stop stop-color="#F1915B"/>
<stop offset="1" stop-color="#F54278"/>
</linearGradient>
</defs>
</svg>
